%TF.GenerationSoftware,KiCad,Pcbnew,8.0.5+1*%
%TF.CreationDate,2024-10-09T19:18:35+02:00*%
%TF.ProjectId,QL_PC0084A_keyboard_adapter,514c5f50-4330-4303-9834-415f6b657962,0*%
%TF.SameCoordinates,Original*%
%TF.FileFunction,Legend,Bot*%
%TF.FilePolarity,Positive*%
%FSLAX46Y46*%
G04 Gerber Fmt 4.6, Leading zero omitted, Abs format (unit mm)*
G04 Created by KiCad (PCBNEW 8.0.5+1) date 2024-10-09 19:18:35*
%MOMM*%
%LPD*%
G01*
G04 APERTURE LIST*
%ADD10C,0.150000*%
%ADD11C,0.120000*%
%ADD12C,0.350000*%
G04 APERTURE END LIST*
D10*
X235283333Y-78194819D02*
X235283333Y-78909104D01*
X235283333Y-78909104D02*
X235330952Y-79051961D01*
X235330952Y-79051961D02*
X235426190Y-79147200D01*
X235426190Y-79147200D02*
X235569047Y-79194819D01*
X235569047Y-79194819D02*
X235664285Y-79194819D01*
X234854761Y-78290057D02*
X234807142Y-78242438D01*
X234807142Y-78242438D02*
X234711904Y-78194819D01*
X234711904Y-78194819D02*
X234473809Y-78194819D01*
X234473809Y-78194819D02*
X234378571Y-78242438D01*
X234378571Y-78242438D02*
X234330952Y-78290057D01*
X234330952Y-78290057D02*
X234283333Y-78385295D01*
X234283333Y-78385295D02*
X234283333Y-78480533D01*
X234283333Y-78480533D02*
X234330952Y-78623390D01*
X234330952Y-78623390D02*
X234902380Y-79194819D01*
X234902380Y-79194819D02*
X234283333Y-79194819D01*
X176093333Y-117564819D02*
X176093333Y-118279104D01*
X176093333Y-118279104D02*
X176140952Y-118421961D01*
X176140952Y-118421961D02*
X176236190Y-118517200D01*
X176236190Y-118517200D02*
X176379047Y-118564819D01*
X176379047Y-118564819D02*
X176474285Y-118564819D01*
X175617142Y-118564819D02*
X175617142Y-117564819D01*
X175617142Y-117564819D02*
X175236190Y-117564819D01*
X175236190Y-117564819D02*
X175140952Y-117612438D01*
X175140952Y-117612438D02*
X175093333Y-117660057D01*
X175093333Y-117660057D02*
X175045714Y-117755295D01*
X175045714Y-117755295D02*
X175045714Y-117898152D01*
X175045714Y-117898152D02*
X175093333Y-117993390D01*
X175093333Y-117993390D02*
X175140952Y-118041009D01*
X175140952Y-118041009D02*
X175236190Y-118088628D01*
X175236190Y-118088628D02*
X175617142Y-118088628D01*
X174664761Y-117660057D02*
X174617142Y-117612438D01*
X174617142Y-117612438D02*
X174521904Y-117564819D01*
X174521904Y-117564819D02*
X174283809Y-117564819D01*
X174283809Y-117564819D02*
X174188571Y-117612438D01*
X174188571Y-117612438D02*
X174140952Y-117660057D01*
X174140952Y-117660057D02*
X174093333Y-117755295D01*
X174093333Y-117755295D02*
X174093333Y-117850533D01*
X174093333Y-117850533D02*
X174140952Y-117993390D01*
X174140952Y-117993390D02*
X174712380Y-118564819D01*
X174712380Y-118564819D02*
X174093333Y-118564819D01*
X220043333Y-78194819D02*
X220043333Y-78909104D01*
X220043333Y-78909104D02*
X220090952Y-79051961D01*
X220090952Y-79051961D02*
X220186190Y-79147200D01*
X220186190Y-79147200D02*
X220329047Y-79194819D01*
X220329047Y-79194819D02*
X220424285Y-79194819D01*
X219043333Y-79194819D02*
X219614761Y-79194819D01*
X219329047Y-79194819D02*
X219329047Y-78194819D01*
X219329047Y-78194819D02*
X219424285Y-78337676D01*
X219424285Y-78337676D02*
X219519523Y-78432914D01*
X219519523Y-78432914D02*
X219614761Y-78480533D01*
D11*
%TO.C,J2*%
X233620000Y-79950000D02*
X233620000Y-128270000D01*
X233620000Y-130870000D02*
X233620000Y-129540000D01*
X234950000Y-130870000D02*
X233620000Y-130870000D01*
X236280000Y-79950000D02*
X233620000Y-79950000D01*
X236280000Y-79950000D02*
X236280000Y-128270000D01*
X236280000Y-128270000D02*
X233620000Y-128270000D01*
%TO.C,JP2*%
X173860000Y-115205000D02*
X176660000Y-115205000D01*
X173860000Y-117205000D02*
X173860000Y-115205000D01*
X176660000Y-115205000D02*
X176660000Y-117205000D01*
X176660000Y-117205000D02*
X173860000Y-117205000D01*
%TO.C,J1*%
X218380000Y-82550000D02*
X221040000Y-82550000D01*
X218380000Y-130870000D02*
X218380000Y-82550000D01*
X218380000Y-130870000D02*
X221040000Y-130870000D01*
X219710000Y-79950000D02*
X221040000Y-79950000D01*
X221040000Y-79950000D02*
X221040000Y-81280000D01*
X221040000Y-130870000D02*
X221040000Y-82550000D01*
%TD*%
D12*
X110109556Y-105282437D03*
X107932505Y-105409437D03*
X108204556Y-103250437D03*
X102976000Y-105283000D03*
X100798949Y-105410000D03*
X101071000Y-103251000D03*
X115570000Y-78740000D03*
X115570000Y-81280000D03*
X115570000Y-83820000D03*
X115570000Y-86360000D03*
X115570000Y-88900000D03*
X115570000Y-91440000D03*
X115570000Y-93980000D03*
X115570000Y-96520000D03*
X115570000Y-99060000D03*
X115570000Y-101600000D03*
X115570000Y-104140000D03*
X115570000Y-106680000D03*
X115570000Y-109220000D03*
X115570000Y-111760000D03*
X115570000Y-114300000D03*
X115570000Y-116840000D03*
X115570000Y-119380000D03*
X115570000Y-121920000D03*
X115570000Y-124460000D03*
X115570000Y-127000000D03*
X130810000Y-127000000D03*
X130810000Y-124460000D03*
X130810000Y-121920000D03*
X130810000Y-119380000D03*
X130810000Y-116840000D03*
X130810000Y-114300000D03*
X130810000Y-111760000D03*
X130810000Y-109220000D03*
X130810000Y-106680000D03*
X130810000Y-104140000D03*
X130810000Y-101600000D03*
X130810000Y-99060000D03*
X130810000Y-96520000D03*
X130810000Y-93980000D03*
X130810000Y-91440000D03*
X130810000Y-88900000D03*
X130810000Y-86360000D03*
X130810000Y-83820000D03*
X130810000Y-81280000D03*
X130810000Y-78740000D03*
X178440000Y-78750000D03*
X175900000Y-78750000D03*
X173360000Y-78750000D03*
X170820000Y-78750000D03*
X168280000Y-78750000D03*
X165740000Y-78750000D03*
X163200000Y-78750000D03*
X163200000Y-86370000D03*
X165740000Y-86370000D03*
X168280000Y-86370000D03*
X170820000Y-86370000D03*
X173360000Y-86370000D03*
X175900000Y-86370000D03*
X178440000Y-86370000D03*
X215900000Y-81280000D03*
X215900000Y-83820000D03*
X215900000Y-86360000D03*
X215900000Y-88900000D03*
X215900000Y-91440000D03*
X215900000Y-93980000D03*
X215900000Y-96520000D03*
X215900000Y-99060000D03*
X215900000Y-101600000D03*
X215900000Y-104140000D03*
X215900000Y-106680000D03*
X215900000Y-109220000D03*
X215900000Y-111760000D03*
X215900000Y-114300000D03*
X215900000Y-116840000D03*
X215900000Y-119380000D03*
X215900000Y-121920000D03*
X215900000Y-124460000D03*
X215900000Y-127000000D03*
X215900000Y-129540000D03*
X231140000Y-129540000D03*
X231140000Y-127000000D03*
X231140000Y-124460000D03*
X231140000Y-121920000D03*
X231140000Y-119380000D03*
X231140000Y-116840000D03*
X231140000Y-114300000D03*
X231140000Y-111760000D03*
X231140000Y-109220000D03*
X231140000Y-106680000D03*
X231140000Y-104140000D03*
X231140000Y-101600000D03*
X231140000Y-99060000D03*
X231140000Y-96520000D03*
X231140000Y-93980000D03*
X231140000Y-91440000D03*
X231140000Y-88900000D03*
X231140000Y-86360000D03*
X231140000Y-83820000D03*
X231140000Y-81280000D03*
X105410000Y-86995000D03*
X105410000Y-79375000D03*
X136525000Y-83780000D03*
X136525000Y-78780000D03*
X180975000Y-95885000D03*
X178435000Y-95885000D03*
X175895000Y-95885000D03*
X173355000Y-95885000D03*
X170815000Y-95885000D03*
X168275000Y-95885000D03*
X165735000Y-95885000D03*
X163195000Y-95885000D03*
X163195000Y-103505000D03*
X165735000Y-103505000D03*
X168275000Y-103505000D03*
X170815000Y-103505000D03*
X173355000Y-103505000D03*
X175895000Y-103505000D03*
X178435000Y-103505000D03*
X180975000Y-103505000D03*
X109855000Y-98980000D03*
X109855000Y-93980000D03*
X153075000Y-90170000D03*
X158075000Y-90170000D03*
X187960000Y-93980000D03*
X192960000Y-93980000D03*
X105410000Y-92710000D03*
X105410000Y-100330000D03*
X180975000Y-107950000D03*
X175975000Y-107950000D03*
X139880000Y-83790000D03*
X144780000Y-83790000D03*
X102870000Y-86995000D03*
X102870000Y-79375000D03*
X106680000Y-109855000D03*
X106680000Y-117475000D03*
X101600000Y-109855000D03*
X101600000Y-117475000D03*
X99695000Y-100330000D03*
X99695000Y-92710000D03*
X203825000Y-111125000D03*
X203825000Y-108585000D03*
X203825000Y-106045000D03*
X203825000Y-103505000D03*
X203825000Y-100965000D03*
X203825000Y-98425000D03*
X203825000Y-95885000D03*
X196205000Y-95885000D03*
X196205000Y-98425000D03*
X196205000Y-100965000D03*
X196205000Y-103505000D03*
X196205000Y-106045000D03*
X196205000Y-108585000D03*
X196205000Y-111125000D03*
X99695000Y-79375000D03*
X99695000Y-86995000D03*
X153035000Y-127000000D03*
X155575000Y-127000000D03*
X158115000Y-127000000D03*
X160655000Y-127000000D03*
X163195000Y-127000000D03*
X165735000Y-127000000D03*
X168275000Y-127000000D03*
X170815000Y-127000000D03*
X173355000Y-127000000D03*
X175895000Y-127000000D03*
X178435000Y-127000000D03*
X180975000Y-127000000D03*
X183515000Y-127000000D03*
X186055000Y-127000000D03*
X186055000Y-111760000D03*
X183515000Y-111760000D03*
X180975000Y-111760000D03*
X178435000Y-111760000D03*
X175895000Y-111760000D03*
X173355000Y-111760000D03*
X170815000Y-111760000D03*
X168275000Y-111760000D03*
X165735000Y-111760000D03*
X163195000Y-111760000D03*
X160655000Y-111760000D03*
X158115000Y-111760000D03*
X155575000Y-111760000D03*
X153035000Y-111760000D03*
X93980000Y-110490000D03*
X93980000Y-107950000D03*
X93980000Y-105410000D03*
X93980000Y-102870000D03*
X93980000Y-100330000D03*
X93980000Y-97790000D03*
X234950000Y-129540000D03*
X234950000Y-127000000D03*
X234950000Y-124460000D03*
X234950000Y-121920000D03*
X234950000Y-119380000D03*
X234950000Y-116840000D03*
X234950000Y-114300000D03*
X234950000Y-111760000D03*
X234950000Y-109220000D03*
X234950000Y-106680000D03*
X234950000Y-104140000D03*
X234950000Y-101600000D03*
X234950000Y-99060000D03*
X234950000Y-96520000D03*
X234950000Y-93980000D03*
X234950000Y-91440000D03*
X234950000Y-88900000D03*
X234950000Y-86360000D03*
X234950000Y-83820000D03*
X234950000Y-81280000D03*
X219710000Y-81280000D03*
X219710000Y-83820000D03*
X219710000Y-86360000D03*
X219710000Y-88900000D03*
X219710000Y-91440000D03*
X219710000Y-93980000D03*
X219710000Y-96520000D03*
X219710000Y-99060000D03*
X219710000Y-101600000D03*
X219710000Y-104140000D03*
X219710000Y-106680000D03*
X219710000Y-109220000D03*
X219710000Y-111760000D03*
X219710000Y-114300000D03*
X219710000Y-116840000D03*
X219710000Y-119380000D03*
X219710000Y-121920000D03*
X219710000Y-124460000D03*
X219710000Y-127000000D03*
X219710000Y-129540000D03*
M02*
