%TF.GenerationSoftware,KiCad,Pcbnew,8.0.5+1*%
%TF.CreationDate,2024-10-09T15:07:38+02:00*%
%TF.ProjectId,QL_PC0084A_keyboard_adapter,514c5f50-4330-4303-9834-415f6b657962,0*%
%TF.SameCoordinates,Original*%
%TF.FileFunction,Soldermask,Top*%
%TF.FilePolarity,Negative*%
%FSLAX46Y46*%
G04 Gerber Fmt 4.6, Leading zero omitted, Abs format (unit mm)*
G04 Created by KiCad (PCBNEW 8.0.5+1) date 2024-10-09 15:07:38*
%MOMM*%
%LPD*%
G01*
G04 APERTURE LIST*
%ADD10R,1.600000X1.600000*%
%ADD11O,1.600000X1.600000*%
%ADD12R,1.300000X1.300000*%
%ADD13C,1.300000*%
%ADD14C,1.600000*%
%ADD15C,1.500000*%
%ADD16R,1.700000X1.700000*%
%ADD17O,1.700000X1.700000*%
%ADD18R,1.000000X1.500000*%
G04 APERTURE END LIST*
D10*
%TO.C,U2*%
X115570000Y-78740000D03*
D11*
X115570000Y-81280000D03*
X115570000Y-83820000D03*
X115570000Y-86360000D03*
X115570000Y-88900000D03*
X115570000Y-91440000D03*
X115570000Y-93980000D03*
X115570000Y-96520000D03*
X115570000Y-99060000D03*
X115570000Y-101600000D03*
X115570000Y-104140000D03*
X115570000Y-106680000D03*
X115570000Y-109220000D03*
X115570000Y-111760000D03*
X115570000Y-114300000D03*
X115570000Y-116840000D03*
X115570000Y-119380000D03*
X115570000Y-121920000D03*
X115570000Y-124460000D03*
X115570000Y-127000000D03*
X130810000Y-127000000D03*
X130810000Y-124460000D03*
X130810000Y-121920000D03*
X130810000Y-119380000D03*
X130810000Y-116840000D03*
X130810000Y-114300000D03*
X130810000Y-111760000D03*
X130810000Y-109220000D03*
X130810000Y-106680000D03*
X130810000Y-104140000D03*
X130810000Y-101600000D03*
X130810000Y-99060000D03*
X130810000Y-96520000D03*
X130810000Y-93980000D03*
X130810000Y-91440000D03*
X130810000Y-88900000D03*
X130810000Y-86360000D03*
X130810000Y-83820000D03*
X130810000Y-81280000D03*
X130810000Y-78740000D03*
%TD*%
D10*
%TO.C,U8*%
X178440000Y-78750000D03*
D11*
X175900000Y-78750000D03*
X173360000Y-78750000D03*
X170820000Y-78750000D03*
X168280000Y-78750000D03*
X165740000Y-78750000D03*
X163200000Y-78750000D03*
X163200000Y-86370000D03*
X165740000Y-86370000D03*
X168280000Y-86370000D03*
X170820000Y-86370000D03*
X173360000Y-86370000D03*
X175900000Y-86370000D03*
X178440000Y-86370000D03*
%TD*%
D10*
%TO.C,U1*%
X215900000Y-81280000D03*
D11*
X215900000Y-83820000D03*
X215900000Y-86360000D03*
X215900000Y-88900000D03*
X215900000Y-91440000D03*
X215900000Y-93980000D03*
X215900000Y-96520000D03*
X215900000Y-99060000D03*
X215900000Y-101600000D03*
X215900000Y-104140000D03*
X215900000Y-106680000D03*
X215900000Y-109220000D03*
X215900000Y-111760000D03*
X215900000Y-114300000D03*
X215900000Y-116840000D03*
X215900000Y-119380000D03*
X215900000Y-121920000D03*
X215900000Y-124460000D03*
X215900000Y-127000000D03*
X215900000Y-129540000D03*
X231140000Y-129540000D03*
X231140000Y-127000000D03*
X231140000Y-124460000D03*
X231140000Y-121920000D03*
X231140000Y-119380000D03*
X231140000Y-116840000D03*
X231140000Y-114300000D03*
X231140000Y-111760000D03*
X231140000Y-109220000D03*
X231140000Y-106680000D03*
X231140000Y-104140000D03*
X231140000Y-101600000D03*
X231140000Y-99060000D03*
X231140000Y-96520000D03*
X231140000Y-93980000D03*
X231140000Y-91440000D03*
X231140000Y-88900000D03*
X231140000Y-86360000D03*
X231140000Y-83820000D03*
X231140000Y-81280000D03*
%TD*%
D12*
%TO.C,Q2*%
X107950000Y-105770000D03*
D13*
X109220000Y-104500000D03*
X110490000Y-105770000D03*
%TD*%
D14*
%TO.C,R5*%
X105410000Y-86995000D03*
D11*
X105410000Y-79375000D03*
%TD*%
D14*
%TO.C,C2*%
X136525000Y-83780000D03*
X136525000Y-78780000D03*
%TD*%
D12*
%TO.C,Q1*%
X100330000Y-105135000D03*
D13*
X101600000Y-103865000D03*
X102870000Y-105135000D03*
%TD*%
D10*
%TO.C,U6*%
X180975000Y-95885000D03*
D11*
X178435000Y-95885000D03*
X175895000Y-95885000D03*
X173355000Y-95885000D03*
X170815000Y-95885000D03*
X168275000Y-95885000D03*
X165735000Y-95885000D03*
X163195000Y-95885000D03*
X163195000Y-103505000D03*
X165735000Y-103505000D03*
X168275000Y-103505000D03*
X170815000Y-103505000D03*
X173355000Y-103505000D03*
X175895000Y-103505000D03*
X178435000Y-103505000D03*
X180975000Y-103505000D03*
%TD*%
D14*
%TO.C,C5*%
X109855000Y-98980000D03*
X109855000Y-93980000D03*
%TD*%
%TO.C,C4*%
X153075000Y-90170000D03*
X158075000Y-90170000D03*
%TD*%
%TO.C,C1*%
X187960000Y-93980000D03*
X192960000Y-93980000D03*
%TD*%
%TO.C,R7*%
X105410000Y-92710000D03*
D11*
X105410000Y-100330000D03*
%TD*%
D14*
%TO.C,C3*%
X180975000Y-107950000D03*
X175975000Y-107950000D03*
%TD*%
D15*
%TO.C,Y1*%
X139880000Y-83790000D03*
X144780000Y-83790000D03*
%TD*%
D14*
%TO.C,R4*%
X102870000Y-86995000D03*
D11*
X102870000Y-79375000D03*
%TD*%
D14*
%TO.C,R1*%
X106680000Y-109855000D03*
D11*
X106680000Y-117475000D03*
%TD*%
D14*
%TO.C,R2*%
X101600000Y-109855000D03*
D11*
X101600000Y-117475000D03*
%TD*%
D14*
%TO.C,R6*%
X99695000Y-100330000D03*
D11*
X99695000Y-92710000D03*
%TD*%
D10*
%TO.C,U7*%
X203825000Y-111125000D03*
D11*
X203825000Y-108585000D03*
X203825000Y-106045000D03*
X203825000Y-103505000D03*
X203825000Y-100965000D03*
X203825000Y-98425000D03*
X203825000Y-95885000D03*
X196205000Y-95885000D03*
X196205000Y-98425000D03*
X196205000Y-100965000D03*
X196205000Y-103505000D03*
X196205000Y-106045000D03*
X196205000Y-108585000D03*
X196205000Y-111125000D03*
%TD*%
D14*
%TO.C,R3*%
X99695000Y-79375000D03*
D11*
X99695000Y-86995000D03*
%TD*%
D10*
%TO.C,U3*%
X153035000Y-127000000D03*
D11*
X155575000Y-127000000D03*
X158115000Y-127000000D03*
X160655000Y-127000000D03*
X163195000Y-127000000D03*
X165735000Y-127000000D03*
X168275000Y-127000000D03*
X170815000Y-127000000D03*
X173355000Y-127000000D03*
X175895000Y-127000000D03*
X178435000Y-127000000D03*
X180975000Y-127000000D03*
X183515000Y-127000000D03*
X186055000Y-127000000D03*
X186055000Y-111760000D03*
X183515000Y-111760000D03*
X180975000Y-111760000D03*
X178435000Y-111760000D03*
X175895000Y-111760000D03*
X173355000Y-111760000D03*
X170815000Y-111760000D03*
X168275000Y-111760000D03*
X165735000Y-111760000D03*
X163195000Y-111760000D03*
X160655000Y-111760000D03*
X158115000Y-111760000D03*
X155575000Y-111760000D03*
X153035000Y-111760000D03*
%TD*%
D16*
%TO.C,J3*%
X93980000Y-110490000D03*
D17*
X93980000Y-107950000D03*
X93980000Y-105410000D03*
X93980000Y-102870000D03*
X93980000Y-100330000D03*
X93980000Y-97790000D03*
%TD*%
D18*
%TO.C,JP1*%
X136555000Y-124460000D03*
X135255000Y-124460000D03*
%TD*%
D16*
%TO.C,J2*%
X234950000Y-129540000D03*
D17*
X234950000Y-127000000D03*
X234950000Y-124460000D03*
X234950000Y-121920000D03*
X234950000Y-119380000D03*
X234950000Y-116840000D03*
X234950000Y-114300000D03*
X234950000Y-111760000D03*
X234950000Y-109220000D03*
X234950000Y-106680000D03*
X234950000Y-104140000D03*
X234950000Y-101600000D03*
X234950000Y-99060000D03*
X234950000Y-96520000D03*
X234950000Y-93980000D03*
X234950000Y-91440000D03*
X234950000Y-88900000D03*
X234950000Y-86360000D03*
X234950000Y-83820000D03*
X234950000Y-81280000D03*
%TD*%
D16*
%TO.C,J1*%
X219710000Y-81280000D03*
D17*
X219710000Y-83820000D03*
X219710000Y-86360000D03*
X219710000Y-88900000D03*
X219710000Y-91440000D03*
X219710000Y-93980000D03*
X219710000Y-96520000D03*
X219710000Y-99060000D03*
X219710000Y-101600000D03*
X219710000Y-104140000D03*
X219710000Y-106680000D03*
X219710000Y-109220000D03*
X219710000Y-111760000D03*
X219710000Y-114300000D03*
X219710000Y-116840000D03*
X219710000Y-119380000D03*
X219710000Y-121920000D03*
X219710000Y-124460000D03*
X219710000Y-127000000D03*
X219710000Y-129540000D03*
%TD*%
M02*
