M48
METRIC,TZ
T1C0.300
T2C0.500
T3C0.750
T4C0.800
T5C1.000
%
G90
G05
T1
X153670Y-103505
X160655Y-103505
X198120Y-113665
X198120Y-128270
X198120Y-128270
X201295Y-113665
X201295Y-128270
X201295Y-128270
X204470Y-113665
X204470Y-128270
T2
X109220Y-77470
X109220Y-88900
X143510Y-78740
X145415Y-111125
X145415Y-127635
X147320Y-93345
X147320Y-101600
X149225Y-111125
X149225Y-127635
X150495Y-75565
X150495Y-93345
X150495Y-101600
X153035Y-76200
X153035Y-86995
X158115Y-78740
X158115Y-86995
X183515Y-79375
X183515Y-92075
X184785Y-92075
X184785Y-106045
X207645Y-95885
X207645Y-128270
T3
X100799Y-105410
X101071Y-103251
X102976Y-105283
X107933Y-105409
X108205Y-103250
X110110Y-105282
T4
X99695Y-79375
X99695Y-86995
X99695Y-92710
X99695Y-100330
X101600Y-109855
X101600Y-117475
X102870Y-79375
X102870Y-86995
X105410Y-79375
X105410Y-86995
X105410Y-92710
X105410Y-100330
X106680Y-109855
X106680Y-117475
X109855Y-93980
X109855Y-98980
X115570Y-78740
X115570Y-81280
X115570Y-83820
X115570Y-86360
X115570Y-88900
X115570Y-91440
X115570Y-93980
X115570Y-96520
X115570Y-99060
X115570Y-101600
X115570Y-104140
X115570Y-106680
X115570Y-109220
X115570Y-111760
X115570Y-114300
X115570Y-116840
X115570Y-119380
X115570Y-121920
X115570Y-124460
X115570Y-127000
X130810Y-78740
X130810Y-81280
X130810Y-83820
X130810Y-86360
X130810Y-88900
X130810Y-91440
X130810Y-93980
X130810Y-96520
X130810Y-99060
X130810Y-101600
X130810Y-104140
X130810Y-106680
X130810Y-109220
X130810Y-111760
X130810Y-114300
X130810Y-116840
X130810Y-119380
X130810Y-121920
X130810Y-124460
X130810Y-127000
X136525Y-78780
X136525Y-83780
X139880Y-83790
X144780Y-83790
X153035Y-111760
X153035Y-127000
X153075Y-90170
X155575Y-111760
X155575Y-127000
X158075Y-90170
X158115Y-111760
X158115Y-127000
X160655Y-111760
X160655Y-127000
X163195Y-95885
X163195Y-103505
X163195Y-111760
X163195Y-127000
X163200Y-78750
X163200Y-86370
X165735Y-95885
X165735Y-103505
X165735Y-111760
X165735Y-127000
X165740Y-78750
X165740Y-86370
X168275Y-95885
X168275Y-103505
X168275Y-111760
X168275Y-127000
X168280Y-78750
X168280Y-86370
X170815Y-95885
X170815Y-103505
X170815Y-111760
X170815Y-127000
X170820Y-78750
X170820Y-86370
X173355Y-95885
X173355Y-103505
X173355Y-111760
X173355Y-127000
X173360Y-78750
X173360Y-86370
X175895Y-95885
X175895Y-103505
X175895Y-111760
X175895Y-127000
X175900Y-78750
X175900Y-86370
X175975Y-107950
X178435Y-95885
X178435Y-103505
X178435Y-111760
X178435Y-127000
X178440Y-78750
X178440Y-86370
X180975Y-95885
X180975Y-103505
X180975Y-107950
X180975Y-111760
X180975Y-127000
X183515Y-111760
X183515Y-127000
X186055Y-111760
X186055Y-127000
X187960Y-93980
X192960Y-93980
X196205Y-95885
X196205Y-98425
X196205Y-100965
X196205Y-103505
X196205Y-106045
X196205Y-108585
X196205Y-111125
X203825Y-95885
X203825Y-98425
X203825Y-100965
X203825Y-103505
X203825Y-106045
X203825Y-108585
X203825Y-111125
X215900Y-81280
X215900Y-83820
X215900Y-86360
X215900Y-88900
X215900Y-91440
X215900Y-93980
X215900Y-96520
X215900Y-99060
X215900Y-101600
X215900Y-104140
X215900Y-106680
X215900Y-109220
X215900Y-111760
X215900Y-114300
X215900Y-116840
X215900Y-119380
X215900Y-121920
X215900Y-124460
X215900Y-127000
X215900Y-129540
X231140Y-81280
X231140Y-83820
X231140Y-86360
X231140Y-88900
X231140Y-91440
X231140Y-93980
X231140Y-96520
X231140Y-99060
X231140Y-101600
X231140Y-104140
X231140Y-106680
X231140Y-109220
X231140Y-111760
X231140Y-114300
X231140Y-116840
X231140Y-119380
X231140Y-121920
X231140Y-124460
X231140Y-127000
X231140Y-129540
T5
X93980Y-97790
X93980Y-100330
X93980Y-102870
X93980Y-105410
X93980Y-107950
X93980Y-110490
X219710Y-81280
X219710Y-83820
X219710Y-86360
X219710Y-88900
X219710Y-91440
X219710Y-93980
X219710Y-96520
X219710Y-99060
X219710Y-101600
X219710Y-104140
X219710Y-106680
X219710Y-109220
X219710Y-111760
X219710Y-114300
X219710Y-116840
X219710Y-119380
X219710Y-121920
X219710Y-124460
X219710Y-127000
X219710Y-129540
X234950Y-81280
X234950Y-83820
X234950Y-86360
X234950Y-88900
X234950Y-91440
X234950Y-93980
X234950Y-96520
X234950Y-99060
X234950Y-101600
X234950Y-104140
X234950Y-106680
X234950Y-109220
X234950Y-111760
X234950Y-114300
X234950Y-116840
X234950Y-119380
X234950Y-121920
X234950Y-124460
X234950Y-127000
X234950Y-129540
M30
