M48
; DRILL file {KiCad 8.0.5+1} date 2024-10-09T15:07:38+0200
; FORMAT={-:-/ absolute / metric / decimal}
; #@! TF.CreationDate,2024-10-09T15:07:38+02:00
; #@! TF.GenerationSoftware,Kicad,Pcbnew,8.0.5+1
; #@! TF.FileFunction,Plated,1,2,PTH
FMAT,2
METRIC
; #@! TA.AperFunction,Plated,PTH,ViaDrill
T1C0.300
; #@! TA.AperFunction,Plated,PTH,ViaDrill
T2C0.500
; #@! TA.AperFunction,Plated,PTH,ComponentDrill
T3C0.750
; #@! TA.AperFunction,Plated,PTH,ComponentDrill
T4C0.800
; #@! TA.AperFunction,Plated,PTH,ComponentDrill
T5C1.000
%
G90
G05
T1
X153.67Y-103.505
X160.655Y-103.505
X198.12Y-113.665
X198.12Y-128.27
X198.12Y-128.27
X201.295Y-113.665
X201.295Y-128.27
X201.295Y-128.27
X204.47Y-113.665
X204.47Y-128.27
T2
X109.22Y-77.47
X109.22Y-88.9
X143.51Y-78.74
X145.415Y-111.125
X145.415Y-127.635
X147.32Y-93.345
X147.32Y-101.6
X149.225Y-111.125
X149.225Y-127.635
X150.495Y-75.565
X150.495Y-93.345
X150.495Y-101.6
X153.035Y-76.2
X153.035Y-86.995
X158.115Y-78.74
X158.115Y-86.995
X183.515Y-79.375
X183.515Y-92.075
X184.785Y-92.075
X184.785Y-106.045
X207.645Y-95.885
X207.645Y-128.27
T3
X100.33Y-105.135
X101.6Y-103.865
X102.87Y-105.135
X107.95Y-105.77
X109.22Y-104.5
X110.49Y-105.77
T4
X99.695Y-79.375
X99.695Y-86.995
X99.695Y-92.71
X99.695Y-100.33
X101.6Y-109.855
X101.6Y-117.475
X102.87Y-79.375
X102.87Y-86.995
X105.41Y-79.375
X105.41Y-86.995
X105.41Y-92.71
X105.41Y-100.33
X106.68Y-109.855
X106.68Y-117.475
X109.855Y-93.98
X109.855Y-98.98
X115.57Y-78.74
X115.57Y-81.28
X115.57Y-83.82
X115.57Y-86.36
X115.57Y-88.9
X115.57Y-91.44
X115.57Y-93.98
X115.57Y-96.52
X115.57Y-99.06
X115.57Y-101.6
X115.57Y-104.14
X115.57Y-106.68
X115.57Y-109.22
X115.57Y-111.76
X115.57Y-114.3
X115.57Y-116.84
X115.57Y-119.38
X115.57Y-121.92
X115.57Y-124.46
X115.57Y-127.0
X130.81Y-78.74
X130.81Y-81.28
X130.81Y-83.82
X130.81Y-86.36
X130.81Y-88.9
X130.81Y-91.44
X130.81Y-93.98
X130.81Y-96.52
X130.81Y-99.06
X130.81Y-101.6
X130.81Y-104.14
X130.81Y-106.68
X130.81Y-109.22
X130.81Y-111.76
X130.81Y-114.3
X130.81Y-116.84
X130.81Y-119.38
X130.81Y-121.92
X130.81Y-124.46
X130.81Y-127.0
X136.525Y-78.78
X136.525Y-83.78
X139.88Y-83.79
X144.78Y-83.79
X153.035Y-111.76
X153.035Y-127.0
X153.075Y-90.17
X155.575Y-111.76
X155.575Y-127.0
X158.075Y-90.17
X158.115Y-111.76
X158.115Y-127.0
X160.655Y-111.76
X160.655Y-127.0
X163.195Y-95.885
X163.195Y-103.505
X163.195Y-111.76
X163.195Y-127.0
X163.2Y-78.75
X163.2Y-86.37
X165.735Y-95.885
X165.735Y-103.505
X165.735Y-111.76
X165.735Y-127.0
X165.74Y-78.75
X165.74Y-86.37
X168.275Y-95.885
X168.275Y-103.505
X168.275Y-111.76
X168.275Y-127.0
X168.28Y-78.75
X168.28Y-86.37
X170.815Y-95.885
X170.815Y-103.505
X170.815Y-111.76
X170.815Y-127.0
X170.82Y-78.75
X170.82Y-86.37
X173.355Y-95.885
X173.355Y-103.505
X173.355Y-111.76
X173.355Y-127.0
X173.36Y-78.75
X173.36Y-86.37
X175.895Y-95.885
X175.895Y-103.505
X175.895Y-111.76
X175.895Y-127.0
X175.9Y-78.75
X175.9Y-86.37
X175.975Y-107.95
X178.435Y-95.885
X178.435Y-103.505
X178.435Y-111.76
X178.435Y-127.0
X178.44Y-78.75
X178.44Y-86.37
X180.975Y-95.885
X180.975Y-103.505
X180.975Y-107.95
X180.975Y-111.76
X180.975Y-127.0
X183.515Y-111.76
X183.515Y-127.0
X186.055Y-111.76
X186.055Y-127.0
X187.96Y-93.98
X192.96Y-93.98
X196.205Y-95.885
X196.205Y-98.425
X196.205Y-100.965
X196.205Y-103.505
X196.205Y-106.045
X196.205Y-108.585
X196.205Y-111.125
X203.825Y-95.885
X203.825Y-98.425
X203.825Y-100.965
X203.825Y-103.505
X203.825Y-106.045
X203.825Y-108.585
X203.825Y-111.125
X215.9Y-81.28
X215.9Y-83.82
X215.9Y-86.36
X215.9Y-88.9
X215.9Y-91.44
X215.9Y-93.98
X215.9Y-96.52
X215.9Y-99.06
X215.9Y-101.6
X215.9Y-104.14
X215.9Y-106.68
X215.9Y-109.22
X215.9Y-111.76
X215.9Y-114.3
X215.9Y-116.84
X215.9Y-119.38
X215.9Y-121.92
X215.9Y-124.46
X215.9Y-127.0
X215.9Y-129.54
X231.14Y-81.28
X231.14Y-83.82
X231.14Y-86.36
X231.14Y-88.9
X231.14Y-91.44
X231.14Y-93.98
X231.14Y-96.52
X231.14Y-99.06
X231.14Y-101.6
X231.14Y-104.14
X231.14Y-106.68
X231.14Y-109.22
X231.14Y-111.76
X231.14Y-114.3
X231.14Y-116.84
X231.14Y-119.38
X231.14Y-121.92
X231.14Y-124.46
X231.14Y-127.0
X231.14Y-129.54
T5
X93.98Y-97.79
X93.98Y-100.33
X93.98Y-102.87
X93.98Y-105.41
X93.98Y-107.95
X93.98Y-110.49
X219.71Y-81.28
X219.71Y-83.82
X219.71Y-86.36
X219.71Y-88.9
X219.71Y-91.44
X219.71Y-93.98
X219.71Y-96.52
X219.71Y-99.06
X219.71Y-101.6
X219.71Y-104.14
X219.71Y-106.68
X219.71Y-109.22
X219.71Y-111.76
X219.71Y-114.3
X219.71Y-116.84
X219.71Y-119.38
X219.71Y-121.92
X219.71Y-124.46
X219.71Y-127.0
X219.71Y-129.54
X234.95Y-81.28
X234.95Y-83.82
X234.95Y-86.36
X234.95Y-88.9
X234.95Y-91.44
X234.95Y-93.98
X234.95Y-96.52
X234.95Y-99.06
X234.95Y-101.6
X234.95Y-104.14
X234.95Y-106.68
X234.95Y-109.22
X234.95Y-111.76
X234.95Y-114.3
X234.95Y-116.84
X234.95Y-119.38
X234.95Y-121.92
X234.95Y-124.46
X234.95Y-127.0
X234.95Y-129.54
M30
