%TF.GenerationSoftware,KiCad,Pcbnew,8.0.5+1*%
%TF.CreationDate,2024-10-09T19:18:35+02:00*%
%TF.ProjectId,QL_PC0084A_keyboard_adapter,514c5f50-4330-4303-9834-415f6b657962,0*%
%TF.SameCoordinates,Original*%
%TF.FileFunction,Copper,L1,Top*%
%TF.FilePolarity,Positive*%
%FSLAX46Y46*%
G04 Gerber Fmt 4.6, Leading zero omitted, Abs format (unit mm)*
G04 Created by KiCad (PCBNEW 8.0.5+1) date 2024-10-09 19:18:35*
%MOMM*%
%LPD*%
G01*
G04 APERTURE LIST*
G04 Aperture macros list*
%AMRotRect*
0 Rectangle, with rotation*
0 The origin of the aperture is its center*
0 $1 length*
0 $2 width*
0 $3 Rotation angle, in degrees counterclockwise*
0 Add horizontal line*
21,1,$1,$2,0,0,$3*%
G04 Aperture macros list end*
%TA.AperFunction,EtchedComponent*%
%ADD10C,0.000000*%
%TD*%
%TA.AperFunction,ComponentPad*%
%ADD11RotRect,1.300000X1.300000X135.000000*%
%TD*%
%TA.AperFunction,ComponentPad*%
%ADD12C,1.300000*%
%TD*%
%TA.AperFunction,ComponentPad*%
%ADD13R,1.600000X1.600000*%
%TD*%
%TA.AperFunction,ComponentPad*%
%ADD14O,1.600000X1.600000*%
%TD*%
%TA.AperFunction,ComponentPad*%
%ADD15C,1.600000*%
%TD*%
%TA.AperFunction,ComponentPad*%
%ADD16C,1.500000*%
%TD*%
%TA.AperFunction,ComponentPad*%
%ADD17R,1.700000X1.700000*%
%TD*%
%TA.AperFunction,ComponentPad*%
%ADD18O,1.700000X1.700000*%
%TD*%
%TA.AperFunction,SMDPad,CuDef*%
%ADD19R,1.000000X1.500000*%
%TD*%
%TA.AperFunction,ViaPad*%
%ADD20C,1.200000*%
%TD*%
%TA.AperFunction,ViaPad*%
%ADD21C,0.600000*%
%TD*%
%TA.AperFunction,Conductor*%
%ADD22C,0.800000*%
%TD*%
%TA.AperFunction,Conductor*%
%ADD23C,0.200000*%
%TD*%
%ADD24C,0.350000*%
%ADD25C,0.300000*%
G04 APERTURE END LIST*
D10*
%TA.AperFunction,EtchedComponent*%
%TO.C,JP1*%
G36*
X136155000Y-124760000D02*
G01*
X135655000Y-124760000D01*
X135655000Y-124160000D01*
X136155000Y-124160000D01*
X136155000Y-124760000D01*
G37*
%TD.AperFunction*%
%TD*%
D11*
%TO.P,Q2,1,E*%
%TO.N,GND*%
X110109556Y-105282437D03*
D12*
%TO.P,Q2,2,C*%
%TO.N,Net-(Q2-C)*%
X107932505Y-105409437D03*
%TO.P,Q2,3,B*%
%TO.N,Net-(Q2-B)*%
X108204556Y-103250437D03*
%TD*%
D11*
%TO.P,Q1,1,E*%
%TO.N,GND*%
X102976000Y-105283000D03*
D12*
%TO.P,Q1,2,C*%
%TO.N,Net-(Q1-C)*%
X100798949Y-105410000D03*
%TO.P,Q1,3,B*%
%TO.N,Net-(Q1-B)*%
X101071000Y-103251000D03*
%TD*%
D13*
%TO.P,U2,1,T0*%
%TO.N,unconnected-(U2-T0-Pad1)*%
X115570000Y-78740000D03*
D14*
%TO.P,U2,2,X1*%
%TO.N,Net-(U2-X1)*%
X115570000Y-81280000D03*
%TO.P,U2,3,X2*%
%TO.N,Net-(U2-X2)*%
X115570000Y-83820000D03*
%TO.P,U2,4,~{RESET}*%
%TO.N,/RESET*%
X115570000Y-86360000D03*
%TO.P,U2,5,~{SS}*%
%TO.N,+5V*%
X115570000Y-88900000D03*
%TO.P,U2,6,~{INT}*%
%TO.N,unconnected-(U2-~{INT}-Pad6)*%
X115570000Y-91440000D03*
%TO.P,U2,7,EA*%
%TO.N,GND*%
X115570000Y-93980000D03*
%TO.P,U2,8,~{RD}*%
%TO.N,unconnected-(U2-~{RD}-Pad8)*%
X115570000Y-96520000D03*
%TO.P,U2,9,~{PSEN}*%
%TO.N,unconnected-(U2-~{PSEN}-Pad9)*%
X115570000Y-99060000D03*
%TO.P,U2,10,~{WR}*%
%TO.N,unconnected-(U2-~{WR}-Pad10)*%
X115570000Y-101600000D03*
%TO.P,U2,11,ALE*%
%TO.N,unconnected-(U2-ALE-Pad11)*%
X115570000Y-104140000D03*
%TO.P,U2,12,DB.0*%
%TO.N,unconnected-(U2-DB.0-Pad12)*%
X115570000Y-106680000D03*
%TO.P,U2,13,DB.1*%
%TO.N,unconnected-(U2-DB.1-Pad13)*%
X115570000Y-109220000D03*
%TO.P,U2,14,DB.2*%
%TO.N,unconnected-(U2-DB.2-Pad14)*%
X115570000Y-111760000D03*
%TO.P,U2,15,DB.3*%
%TO.N,unconnected-(U2-DB.3-Pad15)*%
X115570000Y-114300000D03*
%TO.P,U2,16,DB.4*%
%TO.N,unconnected-(U2-DB.4-Pad16)*%
X115570000Y-116840000D03*
%TO.P,U2,17,DB.5*%
%TO.N,unconnected-(U2-DB.5-Pad17)*%
X115570000Y-119380000D03*
%TO.P,U2,18,DB.6*%
%TO.N,unconnected-(U2-DB.6-Pad18)*%
X115570000Y-121920000D03*
%TO.P,U2,19,DB.7*%
%TO.N,unconnected-(U2-DB.7-Pad19)*%
X115570000Y-124460000D03*
%TO.P,U2,20,GND*%
%TO.N,GND*%
X115570000Y-127000000D03*
%TO.P,U2,21,P2.0*%
%TO.N,/R_A12*%
X130810000Y-127000000D03*
%TO.P,U2,22,P2.1*%
%TO.N,/ROM_CE*%
X130810000Y-124460000D03*
%TO.P,U2,23,P2.2*%
%TO.N,unconnected-(U2-P2.2-Pad23)*%
X130810000Y-121920000D03*
%TO.P,U2,24,P2.3*%
%TO.N,unconnected-(U2-P2.3-Pad24)*%
X130810000Y-119380000D03*
%TO.P,U2,25,PROG*%
%TO.N,unconnected-(U2-PROG-Pad25)*%
X130810000Y-116840000D03*
%TO.P,U2,26,Vpp/VDD*%
%TO.N,+5V*%
X130810000Y-114300000D03*
%TO.P,U2,27,P1.0*%
%TO.N,/R_A7*%
X130810000Y-111760000D03*
%TO.P,U2,28,P1.1*%
%TO.N,/R_A6*%
X130810000Y-109220000D03*
%TO.P,U2,29,P1.2*%
%TO.N,/R_A5*%
X130810000Y-106680000D03*
%TO.P,U2,30,P1.3*%
%TO.N,/R_A4*%
X130810000Y-104140000D03*
%TO.P,U2,31,P1.4*%
%TO.N,/R_A3*%
X130810000Y-101600000D03*
%TO.P,U2,32,P1.5*%
%TO.N,/R_A2*%
X130810000Y-99060000D03*
%TO.P,U2,33,P1.6*%
%TO.N,/R_A1*%
X130810000Y-96520000D03*
%TO.P,U2,34,P1.7*%
%TO.N,/R_A0*%
X130810000Y-93980000D03*
%TO.P,U2,35,P2.4*%
%TO.N,/R_A11*%
X130810000Y-91440000D03*
%TO.P,U2,36,P2.5*%
%TO.N,Net-(U2-P2.5)*%
X130810000Y-88900000D03*
%TO.P,U2,37,P2.6*%
%TO.N,Net-(U2-P2.6)*%
X130810000Y-86360000D03*
%TO.P,U2,38,P2.7*%
%TO.N,Net-(U2-P2.7)*%
X130810000Y-83820000D03*
%TO.P,U2,39,T1*%
%TO.N,Net-(U2-T1)*%
X130810000Y-81280000D03*
%TO.P,U2,40,VCC*%
%TO.N,+5V*%
X130810000Y-78740000D03*
%TD*%
D13*
%TO.P,U8,1*%
%TO.N,unconnected-(U8-Pad1)*%
X178440000Y-78750000D03*
D14*
%TO.P,U8,2*%
%TO.N,unconnected-(U8-Pad2)*%
X175900000Y-78750000D03*
%TO.P,U8,3*%
%TO.N,Net-(U2-P2.5)*%
X173360000Y-78750000D03*
%TO.P,U8,4*%
%TO.N,Net-(J3-Pin_5)*%
X170820000Y-78750000D03*
%TO.P,U8,5*%
%TO.N,Net-(J3-Pin_4)*%
X168280000Y-78750000D03*
%TO.P,U8,6*%
%TO.N,Net-(U2-T1)*%
X165740000Y-78750000D03*
%TO.P,U8,7,GND*%
%TO.N,GND*%
X163200000Y-78750000D03*
%TO.P,U8,8*%
%TO.N,unconnected-(U8-Pad8)*%
X163200000Y-86370000D03*
%TO.P,U8,9*%
%TO.N,unconnected-(U8-Pad9)*%
X165740000Y-86370000D03*
%TO.P,U8,10*%
%TO.N,Net-(U6-I7)*%
X168280000Y-86370000D03*
%TO.P,U8,11*%
%TO.N,/KBO07*%
X170820000Y-86370000D03*
%TO.P,U8,12*%
%TO.N,Net-(U6-I6)*%
X173360000Y-86370000D03*
%TO.P,U8,13*%
%TO.N,/KBO06*%
X175900000Y-86370000D03*
%TO.P,U8,14,VCC*%
%TO.N,+5V*%
X178440000Y-86370000D03*
%TD*%
D13*
%TO.P,U1,1,T0*%
%TO.N,Net-(J1-Pin_1)*%
X215900000Y-81280000D03*
D14*
%TO.P,U1,2,X1*%
%TO.N,Net-(J1-Pin_2)*%
X215900000Y-83820000D03*
%TO.P,U1,3,X2*%
%TO.N,Net-(J1-Pin_3)*%
X215900000Y-86360000D03*
%TO.P,U1,4,~{RESET}*%
%TO.N,/RESET*%
X215900000Y-88900000D03*
%TO.P,U1,5,~{SS}*%
%TO.N,Net-(J1-Pin_5)*%
X215900000Y-91440000D03*
%TO.P,U1,6,~{INT}*%
%TO.N,Net-(J1-Pin_6)*%
X215900000Y-93980000D03*
%TO.P,U1,7,EA*%
%TO.N,Net-(J1-Pin_7)*%
X215900000Y-96520000D03*
%TO.P,U1,8,~{RD}*%
%TO.N,Net-(J1-Pin_8)*%
X215900000Y-99060000D03*
%TO.P,U1,9,~{PSEN}*%
%TO.N,Net-(J1-Pin_9)*%
X215900000Y-101600000D03*
%TO.P,U1,10,~{WR}*%
%TO.N,Net-(J1-Pin_10)*%
X215900000Y-104140000D03*
%TO.P,U1,11,ALE*%
%TO.N,Net-(J1-Pin_11)*%
X215900000Y-106680000D03*
%TO.P,U1,12,DB.0*%
%TO.N,/KBI00*%
X215900000Y-109220000D03*
%TO.P,U1,13,DB.1*%
%TO.N,/KBI01*%
X215900000Y-111760000D03*
%TO.P,U1,14,DB.2*%
%TO.N,/KBI02*%
X215900000Y-114300000D03*
%TO.P,U1,15,DB.3*%
%TO.N,/KBI03*%
X215900000Y-116840000D03*
%TO.P,U1,16,DB.4*%
%TO.N,/KBI04*%
X215900000Y-119380000D03*
%TO.P,U1,17,DB.5*%
%TO.N,/KBI05*%
X215900000Y-121920000D03*
%TO.P,U1,18,DB.6*%
%TO.N,/KBI06*%
X215900000Y-124460000D03*
%TO.P,U1,19,DB.7*%
%TO.N,/KBI07*%
X215900000Y-127000000D03*
%TO.P,U1,20,GND*%
%TO.N,GND*%
X215900000Y-129540000D03*
%TO.P,U1,21,P2.0*%
%TO.N,Net-(J2-Pin_1)*%
X231140000Y-129540000D03*
%TO.P,U1,22,P2.1*%
%TO.N,Net-(J2-Pin_2)*%
X231140000Y-127000000D03*
%TO.P,U1,23,P2.2*%
%TO.N,Net-(J2-Pin_3)*%
X231140000Y-124460000D03*
%TO.P,U1,24,P2.3*%
%TO.N,Net-(J2-Pin_4)*%
X231140000Y-121920000D03*
%TO.P,U1,25,PROG*%
%TO.N,Net-(J2-Pin_5)*%
X231140000Y-119380000D03*
%TO.P,U1,26,Vpp/VDD*%
%TO.N,Net-(J2-Pin_6)*%
X231140000Y-116840000D03*
%TO.P,U1,27,P1.0*%
%TO.N,/KBO00*%
X231140000Y-114300000D03*
%TO.P,U1,28,P1.1*%
%TO.N,/KBO01*%
X231140000Y-111760000D03*
%TO.P,U1,29,P1.2*%
%TO.N,/KBO02*%
X231140000Y-109220000D03*
%TO.P,U1,30,P1.3*%
%TO.N,/KBO03*%
X231140000Y-106680000D03*
%TO.P,U1,31,P1.4*%
%TO.N,/KBO04*%
X231140000Y-104140000D03*
%TO.P,U1,32,P1.5*%
%TO.N,/KBO05*%
X231140000Y-101600000D03*
%TO.P,U1,33,P1.6*%
%TO.N,/KBO06*%
X231140000Y-99060000D03*
%TO.P,U1,34,P1.7*%
%TO.N,/KBO07*%
X231140000Y-96520000D03*
%TO.P,U1,35,P2.4*%
%TO.N,Net-(J2-Pin_15)*%
X231140000Y-93980000D03*
%TO.P,U1,36,P2.5*%
%TO.N,Net-(J2-Pin_16)*%
X231140000Y-91440000D03*
%TO.P,U1,37,P2.6*%
%TO.N,Net-(J2-Pin_17)*%
X231140000Y-88900000D03*
%TO.P,U1,38,P2.7*%
%TO.N,Net-(J2-Pin_18)*%
X231140000Y-86360000D03*
%TO.P,U1,39,T1*%
%TO.N,Net-(J2-Pin_19)*%
X231140000Y-83820000D03*
%TO.P,U1,40,VCC*%
%TO.N,+5V*%
X231140000Y-81280000D03*
%TD*%
D15*
%TO.P,R5,1*%
%TO.N,Net-(U2-P2.6)*%
X105410000Y-86995000D03*
D14*
%TO.P,R5,2*%
%TO.N,+5V*%
X105410000Y-79375000D03*
%TD*%
D15*
%TO.P,C2,1*%
%TO.N,Net-(U2-X1)*%
X136525000Y-83780000D03*
%TO.P,C2,2*%
%TO.N,+5V*%
X136525000Y-78780000D03*
%TD*%
D13*
%TO.P,U6,1,I4*%
%TO.N,Net-(U6-I4)*%
X180975000Y-95885000D03*
D14*
%TO.P,U6,2,I5*%
%TO.N,Net-(U6-I5)*%
X178435000Y-95885000D03*
%TO.P,U6,3,I6*%
%TO.N,Net-(U6-I6)*%
X175895000Y-95885000D03*
%TO.P,U6,4,I7*%
%TO.N,Net-(U6-I7)*%
X173355000Y-95885000D03*
%TO.P,U6,5,EI*%
%TO.N,GND*%
X170815000Y-95885000D03*
%TO.P,U6,6,S2*%
%TO.N,/R_A10*%
X168275000Y-95885000D03*
%TO.P,U6,7,S1*%
%TO.N,/R_A9*%
X165735000Y-95885000D03*
%TO.P,U6,8,GND*%
%TO.N,GND*%
X163195000Y-95885000D03*
%TO.P,U6,9,S0*%
%TO.N,/R_A8*%
X163195000Y-103505000D03*
%TO.P,U6,10,IO*%
%TO.N,Net-(U6-IO)*%
X165735000Y-103505000D03*
%TO.P,U6,11,I1*%
%TO.N,Net-(U6-I1)*%
X168275000Y-103505000D03*
%TO.P,U6,12,I2*%
%TO.N,Net-(U6-I2)*%
X170815000Y-103505000D03*
%TO.P,U6,13,I3*%
%TO.N,Net-(U6-I3)*%
X173355000Y-103505000D03*
%TO.P,U6,14,GS*%
%TO.N,/ROM_OE*%
X175895000Y-103505000D03*
%TO.P,U6,15,EO*%
%TO.N,unconnected-(U6-EO-Pad15)*%
X178435000Y-103505000D03*
%TO.P,U6,16,VCC*%
%TO.N,+5V*%
X180975000Y-103505000D03*
%TD*%
D15*
%TO.P,C5,1*%
%TO.N,GND*%
X109855000Y-98980000D03*
%TO.P,C5,2*%
%TO.N,+5V*%
X109855000Y-93980000D03*
%TD*%
%TO.P,C4,1*%
%TO.N,+5V*%
X153075000Y-90170000D03*
%TO.P,C4,2*%
%TO.N,GND*%
X158075000Y-90170000D03*
%TD*%
%TO.P,C1,1*%
%TO.N,+5V*%
X187960000Y-93980000D03*
%TO.P,C1,2*%
%TO.N,GND*%
X192960000Y-93980000D03*
%TD*%
%TO.P,R7,1*%
%TO.N,Net-(U2-P2.6)*%
X105410000Y-92710000D03*
D14*
%TO.P,R7,2*%
%TO.N,Net-(Q2-B)*%
X105410000Y-100330000D03*
%TD*%
D15*
%TO.P,C3,1*%
%TO.N,+5V*%
X180975000Y-107950000D03*
%TO.P,C3,2*%
%TO.N,GND*%
X175975000Y-107950000D03*
%TD*%
D16*
%TO.P,Y1,1,1*%
%TO.N,Net-(U2-X1)*%
X139880000Y-83790000D03*
%TO.P,Y1,2,2*%
%TO.N,Net-(U2-X2)*%
X144780000Y-83790000D03*
%TD*%
D15*
%TO.P,R4,1*%
%TO.N,Net-(U2-P2.7)*%
X102870000Y-86995000D03*
D14*
%TO.P,R4,2*%
%TO.N,+5V*%
X102870000Y-79375000D03*
%TD*%
D15*
%TO.P,R1,1*%
%TO.N,Net-(Q2-C)*%
X106680000Y-109855000D03*
D14*
%TO.P,R1,2*%
%TO.N,Net-(J3-Pin_3)*%
X106680000Y-117475000D03*
%TD*%
D15*
%TO.P,R2,1*%
%TO.N,Net-(Q1-C)*%
X101600000Y-109855000D03*
D14*
%TO.P,R2,2*%
%TO.N,Net-(J3-Pin_2)*%
X101600000Y-117475000D03*
%TD*%
D15*
%TO.P,R6,1*%
%TO.N,Net-(Q1-B)*%
X99695000Y-100330000D03*
D14*
%TO.P,R6,2*%
%TO.N,Net-(U2-P2.7)*%
X99695000Y-92710000D03*
%TD*%
D13*
%TO.P,U7,1*%
%TO.N,/KBO00*%
X203825000Y-111125000D03*
D14*
%TO.P,U7,2*%
%TO.N,Net-(U6-I3)*%
X203825000Y-108585000D03*
%TO.P,U7,3*%
%TO.N,/KBO02*%
X203825000Y-106045000D03*
%TO.P,U7,4*%
%TO.N,Net-(U6-I1)*%
X203825000Y-103505000D03*
%TO.P,U7,5*%
%TO.N,/KBO04*%
X203825000Y-100965000D03*
%TO.P,U7,6*%
%TO.N,Net-(U6-I4)*%
X203825000Y-98425000D03*
%TO.P,U7,7,GND*%
%TO.N,GND*%
X203825000Y-95885000D03*
%TO.P,U7,8*%
%TO.N,Net-(U6-I5)*%
X196205000Y-95885000D03*
%TO.P,U7,9*%
%TO.N,/KBO05*%
X196205000Y-98425000D03*
%TO.P,U7,10*%
%TO.N,Net-(U6-IO)*%
X196205000Y-100965000D03*
%TO.P,U7,11*%
%TO.N,/KBO03*%
X196205000Y-103505000D03*
%TO.P,U7,12*%
%TO.N,Net-(U6-I2)*%
X196205000Y-106045000D03*
%TO.P,U7,13*%
%TO.N,/KBO01*%
X196205000Y-108585000D03*
%TO.P,U7,14,VCC*%
%TO.N,+5V*%
X196205000Y-111125000D03*
%TD*%
D15*
%TO.P,R3,1*%
%TO.N,+5V*%
X99695000Y-79375000D03*
D14*
%TO.P,R3,2*%
%TO.N,Net-(J3-Pin_4)*%
X99695000Y-86995000D03*
%TD*%
D13*
%TO.P,U3,1,VPP*%
%TO.N,+5V*%
X153035000Y-127000000D03*
D14*
%TO.P,U3,2,A12*%
%TO.N,/R_A12*%
X155575000Y-127000000D03*
%TO.P,U3,3,A7*%
%TO.N,/R_A7*%
X158115000Y-127000000D03*
%TO.P,U3,4,A6*%
%TO.N,/R_A6*%
X160655000Y-127000000D03*
%TO.P,U3,5,A5*%
%TO.N,/R_A5*%
X163195000Y-127000000D03*
%TO.P,U3,6,A4*%
%TO.N,/R_A4*%
X165735000Y-127000000D03*
%TO.P,U3,7,A3*%
%TO.N,/R_A3*%
X168275000Y-127000000D03*
%TO.P,U3,8,A2*%
%TO.N,/R_A2*%
X170815000Y-127000000D03*
%TO.P,U3,9,A1*%
%TO.N,/R_A1*%
X173355000Y-127000000D03*
%TO.P,U3,10,A0*%
%TO.N,/R_A0*%
X175895000Y-127000000D03*
%TO.P,U3,11,D0*%
%TO.N,/KBI00*%
X178435000Y-127000000D03*
%TO.P,U3,12,D1*%
%TO.N,/KBI01*%
X180975000Y-127000000D03*
%TO.P,U3,13,D2*%
%TO.N,/KBI02*%
X183515000Y-127000000D03*
%TO.P,U3,14,GND*%
%TO.N,GND*%
X186055000Y-127000000D03*
%TO.P,U3,15,D3*%
%TO.N,/KBI03*%
X186055000Y-111760000D03*
%TO.P,U3,16,D4*%
%TO.N,/KBI04*%
X183515000Y-111760000D03*
%TO.P,U3,17,D5*%
%TO.N,/KBI05*%
X180975000Y-111760000D03*
%TO.P,U3,18,D6*%
%TO.N,/KBI06*%
X178435000Y-111760000D03*
%TO.P,U3,19,D7*%
%TO.N,/KBI07*%
X175895000Y-111760000D03*
%TO.P,U3,20,~{CE}*%
%TO.N,Net-(JP1-A)*%
X173355000Y-111760000D03*
%TO.P,U3,21,A10*%
%TO.N,/R_A10*%
X170815000Y-111760000D03*
%TO.P,U3,22,~{OE}*%
%TO.N,/ROM_OE*%
X168275000Y-111760000D03*
%TO.P,U3,23,A11*%
%TO.N,/R_A11*%
X165735000Y-111760000D03*
%TO.P,U3,24,A9*%
%TO.N,/R_A9*%
X163195000Y-111760000D03*
%TO.P,U3,25,A8*%
%TO.N,/R_A8*%
X160655000Y-111760000D03*
%TO.P,U3,26,NC*%
%TO.N,unconnected-(U3-NC-Pad26)*%
X158115000Y-111760000D03*
%TO.P,U3,27,~{PGM}*%
%TO.N,+5V*%
X155575000Y-111760000D03*
%TO.P,U3,28,VCC*%
X153035000Y-111760000D03*
%TD*%
D17*
%TO.P,J3,1,Pin_1*%
%TO.N,GND*%
X93980000Y-110490000D03*
D18*
%TO.P,J3,2,Pin_2*%
%TO.N,Net-(J3-Pin_2)*%
X93980000Y-107950000D03*
%TO.P,J3,3,Pin_3*%
%TO.N,Net-(J3-Pin_3)*%
X93980000Y-105410000D03*
%TO.P,J3,4,Pin_4*%
%TO.N,Net-(J3-Pin_4)*%
X93980000Y-102870000D03*
%TO.P,J3,5,Pin_5*%
%TO.N,Net-(J3-Pin_5)*%
X93980000Y-100330000D03*
%TO.P,J3,6,Pin_6*%
%TO.N,+5V*%
X93980000Y-97790000D03*
%TD*%
D19*
%TO.P,JP1,1,A*%
%TO.N,Net-(JP1-A)*%
X136555000Y-124460000D03*
%TO.P,JP1,2,B*%
%TO.N,/ROM_CE*%
X135255000Y-124460000D03*
%TD*%
D17*
%TO.P,J2,1,Pin_1*%
%TO.N,Net-(J2-Pin_1)*%
X234950000Y-129540000D03*
D18*
%TO.P,J2,2,Pin_2*%
%TO.N,Net-(J2-Pin_2)*%
X234950000Y-127000000D03*
%TO.P,J2,3,Pin_3*%
%TO.N,Net-(J2-Pin_3)*%
X234950000Y-124460000D03*
%TO.P,J2,4,Pin_4*%
%TO.N,Net-(J2-Pin_4)*%
X234950000Y-121920000D03*
%TO.P,J2,5,Pin_5*%
%TO.N,Net-(J2-Pin_5)*%
X234950000Y-119380000D03*
%TO.P,J2,6,Pin_6*%
%TO.N,Net-(J2-Pin_6)*%
X234950000Y-116840000D03*
%TO.P,J2,7,Pin_7*%
%TO.N,/KBO00*%
X234950000Y-114300000D03*
%TO.P,J2,8,Pin_8*%
%TO.N,/KBO01*%
X234950000Y-111760000D03*
%TO.P,J2,9,Pin_9*%
%TO.N,/KBO02*%
X234950000Y-109220000D03*
%TO.P,J2,10,Pin_10*%
%TO.N,/KBO03*%
X234950000Y-106680000D03*
%TO.P,J2,11,Pin_11*%
%TO.N,/KBO04*%
X234950000Y-104140000D03*
%TO.P,J2,12,Pin_12*%
%TO.N,/KBO05*%
X234950000Y-101600000D03*
%TO.P,J2,13,Pin_13*%
%TO.N,/KBO06*%
X234950000Y-99060000D03*
%TO.P,J2,14,Pin_14*%
%TO.N,/KBO07*%
X234950000Y-96520000D03*
%TO.P,J2,15,Pin_15*%
%TO.N,Net-(J2-Pin_15)*%
X234950000Y-93980000D03*
%TO.P,J2,16,Pin_16*%
%TO.N,Net-(J2-Pin_16)*%
X234950000Y-91440000D03*
%TO.P,J2,17,Pin_17*%
%TO.N,Net-(J2-Pin_17)*%
X234950000Y-88900000D03*
%TO.P,J2,18,Pin_18*%
%TO.N,Net-(J2-Pin_18)*%
X234950000Y-86360000D03*
%TO.P,J2,19,Pin_19*%
%TO.N,Net-(J2-Pin_19)*%
X234950000Y-83820000D03*
%TO.P,J2,20,Pin_20*%
%TO.N,+5V*%
X234950000Y-81280000D03*
%TD*%
D17*
%TO.P,J1,1,Pin_1*%
%TO.N,Net-(J1-Pin_1)*%
X219710000Y-81280000D03*
D18*
%TO.P,J1,2,Pin_2*%
%TO.N,Net-(J1-Pin_2)*%
X219710000Y-83820000D03*
%TO.P,J1,3,Pin_3*%
%TO.N,Net-(J1-Pin_3)*%
X219710000Y-86360000D03*
%TO.P,J1,4,Pin_4*%
%TO.N,/RESET*%
X219710000Y-88900000D03*
%TO.P,J1,5,Pin_5*%
%TO.N,Net-(J1-Pin_5)*%
X219710000Y-91440000D03*
%TO.P,J1,6,Pin_6*%
%TO.N,Net-(J1-Pin_6)*%
X219710000Y-93980000D03*
%TO.P,J1,7,Pin_7*%
%TO.N,Net-(J1-Pin_7)*%
X219710000Y-96520000D03*
%TO.P,J1,8,Pin_8*%
%TO.N,Net-(J1-Pin_8)*%
X219710000Y-99060000D03*
%TO.P,J1,9,Pin_9*%
%TO.N,Net-(J1-Pin_9)*%
X219710000Y-101600000D03*
%TO.P,J1,10,Pin_10*%
%TO.N,Net-(J1-Pin_10)*%
X219710000Y-104140000D03*
%TO.P,J1,11,Pin_11*%
%TO.N,Net-(J1-Pin_11)*%
X219710000Y-106680000D03*
%TO.P,J1,12,Pin_12*%
%TO.N,/KBI00*%
X219710000Y-109220000D03*
%TO.P,J1,13,Pin_13*%
%TO.N,/KBI01*%
X219710000Y-111760000D03*
%TO.P,J1,14,Pin_14*%
%TO.N,/KBI02*%
X219710000Y-114300000D03*
%TO.P,J1,15,Pin_15*%
%TO.N,/KBI03*%
X219710000Y-116840000D03*
%TO.P,J1,16,Pin_16*%
%TO.N,/KBI04*%
X219710000Y-119380000D03*
%TO.P,J1,17,Pin_17*%
%TO.N,/KBI05*%
X219710000Y-121920000D03*
%TO.P,J1,18,Pin_18*%
%TO.N,/KBI06*%
X219710000Y-124460000D03*
%TO.P,J1,19,Pin_19*%
%TO.N,/KBI07*%
X219710000Y-127000000D03*
%TO.P,J1,20,Pin_20*%
%TO.N,GND*%
X219710000Y-129540000D03*
%TD*%
D20*
%TO.N,GND*%
X145415000Y-111125000D03*
X145415000Y-127635000D03*
X207645000Y-128270000D03*
X147320000Y-93345000D03*
X158115000Y-78740000D03*
X207645000Y-95885000D03*
X147320000Y-101600000D03*
X158115000Y-86995000D03*
%TO.N,+5V*%
X183515000Y-92075000D03*
X109220000Y-77470000D03*
X184785000Y-106045000D03*
X150495000Y-93345000D03*
X183515000Y-79375000D03*
X150495000Y-101600000D03*
X153035000Y-76200000D03*
X153035000Y-86995000D03*
X184785000Y-92075000D03*
X150495000Y-75565000D03*
X109220000Y-88900000D03*
X143510000Y-78740000D03*
X149225000Y-127635000D03*
X149225000Y-111125000D03*
D21*
%TO.N,/KBI01*%
X201295000Y-113665000D03*
X201295000Y-128270000D03*
X201295000Y-128270000D03*
%TO.N,/KBI02*%
X198120000Y-113665000D03*
X198120000Y-128270000D03*
X198120000Y-128270000D03*
%TO.N,/KBI00*%
X204470000Y-113665000D03*
X204470000Y-128270000D03*
%TO.N,/R_A8*%
X153670000Y-103505000D03*
X160655000Y-103505000D03*
%TD*%
D22*
%TO.N,GND*%
X145415000Y-127635000D02*
X145415000Y-111125000D01*
X158115000Y-78740000D02*
X158115000Y-86995000D01*
X207645000Y-128270000D02*
X207645000Y-95885000D01*
X147320000Y-93345000D02*
X147320000Y-101600000D01*
%TO.N,+5V*%
X184785000Y-92075000D02*
X184785000Y-106045000D01*
X109220000Y-77470000D02*
X109220000Y-88900000D01*
X153035000Y-76200000D02*
X153035000Y-86995000D01*
X143510000Y-78740000D02*
X150495000Y-75565000D01*
X150495000Y-93345000D02*
X150495000Y-101600000D01*
X149225000Y-111125000D02*
X149225000Y-127635000D01*
X183515000Y-92075000D02*
X183515000Y-79375000D01*
D23*
%TO.N,/KBI01*%
X201295000Y-113665000D02*
X201295000Y-128270000D01*
%TO.N,/KBI02*%
X198120000Y-113665000D02*
X198120000Y-128270000D01*
%TO.N,/KBI00*%
X204470000Y-113665000D02*
X204470000Y-128270000D01*
%TO.N,/R_A8*%
X153670000Y-103505000D02*
X160655000Y-103505000D01*
%TO.N,/ROM_CE*%
X130810000Y-124460000D02*
X135255000Y-124460000D01*
%TO.N,Net-(JP1-A)*%
X152400000Y-125095000D02*
X164465000Y-125095000D01*
X151130000Y-127635000D02*
X151130000Y-126365000D01*
X149860000Y-128905000D02*
X151130000Y-127635000D01*
X144145000Y-128905000D02*
X149860000Y-128905000D01*
X151130000Y-126365000D02*
X152400000Y-125095000D01*
X139700000Y-124460000D02*
X144145000Y-128905000D01*
X139700000Y-124460000D02*
X136555000Y-124460000D01*
X173355000Y-116205000D02*
X173355000Y-111760000D01*
X164465000Y-125095000D02*
X173355000Y-116205000D01*
%TD*%
D24*
X145415000Y-111125000D03*
X145415000Y-127635000D03*
X207645000Y-128270000D03*
X147320000Y-93345000D03*
X158115000Y-78740000D03*
X207645000Y-95885000D03*
X147320000Y-101600000D03*
X158115000Y-86995000D03*
X183515000Y-92075000D03*
X109220000Y-77470000D03*
X184785000Y-106045000D03*
X150495000Y-93345000D03*
X183515000Y-79375000D03*
X150495000Y-101600000D03*
X153035000Y-76200000D03*
X153035000Y-86995000D03*
X184785000Y-92075000D03*
X150495000Y-75565000D03*
X109220000Y-88900000D03*
X143510000Y-78740000D03*
X149225000Y-127635000D03*
X149225000Y-111125000D03*
D25*
X201295000Y-113665000D03*
X201295000Y-128270000D03*
X201295000Y-128270000D03*
X198120000Y-113665000D03*
X198120000Y-128270000D03*
X198120000Y-128270000D03*
X204470000Y-113665000D03*
X204470000Y-128270000D03*
X153670000Y-103505000D03*
X160655000Y-103505000D03*
D24*
X110109556Y-105282437D03*
X107932505Y-105409437D03*
X108204556Y-103250437D03*
X102976000Y-105283000D03*
X100798949Y-105410000D03*
X101071000Y-103251000D03*
X115570000Y-78740000D03*
X115570000Y-81280000D03*
X115570000Y-83820000D03*
X115570000Y-86360000D03*
X115570000Y-88900000D03*
X115570000Y-91440000D03*
X115570000Y-93980000D03*
X115570000Y-96520000D03*
X115570000Y-99060000D03*
X115570000Y-101600000D03*
X115570000Y-104140000D03*
X115570000Y-106680000D03*
X115570000Y-109220000D03*
X115570000Y-111760000D03*
X115570000Y-114300000D03*
X115570000Y-116840000D03*
X115570000Y-119380000D03*
X115570000Y-121920000D03*
X115570000Y-124460000D03*
X115570000Y-127000000D03*
X130810000Y-127000000D03*
X130810000Y-124460000D03*
X130810000Y-121920000D03*
X130810000Y-119380000D03*
X130810000Y-116840000D03*
X130810000Y-114300000D03*
X130810000Y-111760000D03*
X130810000Y-109220000D03*
X130810000Y-106680000D03*
X130810000Y-104140000D03*
X130810000Y-101600000D03*
X130810000Y-99060000D03*
X130810000Y-96520000D03*
X130810000Y-93980000D03*
X130810000Y-91440000D03*
X130810000Y-88900000D03*
X130810000Y-86360000D03*
X130810000Y-83820000D03*
X130810000Y-81280000D03*
X130810000Y-78740000D03*
X178440000Y-78750000D03*
X175900000Y-78750000D03*
X173360000Y-78750000D03*
X170820000Y-78750000D03*
X168280000Y-78750000D03*
X165740000Y-78750000D03*
X163200000Y-78750000D03*
X163200000Y-86370000D03*
X165740000Y-86370000D03*
X168280000Y-86370000D03*
X170820000Y-86370000D03*
X173360000Y-86370000D03*
X175900000Y-86370000D03*
X178440000Y-86370000D03*
X215900000Y-81280000D03*
X215900000Y-83820000D03*
X215900000Y-86360000D03*
X215900000Y-88900000D03*
X215900000Y-91440000D03*
X215900000Y-93980000D03*
X215900000Y-96520000D03*
X215900000Y-99060000D03*
X215900000Y-101600000D03*
X215900000Y-104140000D03*
X215900000Y-106680000D03*
X215900000Y-109220000D03*
X215900000Y-111760000D03*
X215900000Y-114300000D03*
X215900000Y-116840000D03*
X215900000Y-119380000D03*
X215900000Y-121920000D03*
X215900000Y-124460000D03*
X215900000Y-127000000D03*
X215900000Y-129540000D03*
X231140000Y-129540000D03*
X231140000Y-127000000D03*
X231140000Y-124460000D03*
X231140000Y-121920000D03*
X231140000Y-119380000D03*
X231140000Y-116840000D03*
X231140000Y-114300000D03*
X231140000Y-111760000D03*
X231140000Y-109220000D03*
X231140000Y-106680000D03*
X231140000Y-104140000D03*
X231140000Y-101600000D03*
X231140000Y-99060000D03*
X231140000Y-96520000D03*
X231140000Y-93980000D03*
X231140000Y-91440000D03*
X231140000Y-88900000D03*
X231140000Y-86360000D03*
X231140000Y-83820000D03*
X231140000Y-81280000D03*
X105410000Y-86995000D03*
X105410000Y-79375000D03*
X136525000Y-83780000D03*
X136525000Y-78780000D03*
X180975000Y-95885000D03*
X178435000Y-95885000D03*
X175895000Y-95885000D03*
X173355000Y-95885000D03*
X170815000Y-95885000D03*
X168275000Y-95885000D03*
X165735000Y-95885000D03*
X163195000Y-95885000D03*
X163195000Y-103505000D03*
X165735000Y-103505000D03*
X168275000Y-103505000D03*
X170815000Y-103505000D03*
X173355000Y-103505000D03*
X175895000Y-103505000D03*
X178435000Y-103505000D03*
X180975000Y-103505000D03*
X109855000Y-98980000D03*
X109855000Y-93980000D03*
X153075000Y-90170000D03*
X158075000Y-90170000D03*
X187960000Y-93980000D03*
X192960000Y-93980000D03*
X105410000Y-92710000D03*
X105410000Y-100330000D03*
X180975000Y-107950000D03*
X175975000Y-107950000D03*
X139880000Y-83790000D03*
X144780000Y-83790000D03*
X102870000Y-86995000D03*
X102870000Y-79375000D03*
X106680000Y-109855000D03*
X106680000Y-117475000D03*
X101600000Y-109855000D03*
X101600000Y-117475000D03*
X99695000Y-100330000D03*
X99695000Y-92710000D03*
X203825000Y-111125000D03*
X203825000Y-108585000D03*
X203825000Y-106045000D03*
X203825000Y-103505000D03*
X203825000Y-100965000D03*
X203825000Y-98425000D03*
X203825000Y-95885000D03*
X196205000Y-95885000D03*
X196205000Y-98425000D03*
X196205000Y-100965000D03*
X196205000Y-103505000D03*
X196205000Y-106045000D03*
X196205000Y-108585000D03*
X196205000Y-111125000D03*
X99695000Y-79375000D03*
X99695000Y-86995000D03*
X153035000Y-127000000D03*
X155575000Y-127000000D03*
X158115000Y-127000000D03*
X160655000Y-127000000D03*
X163195000Y-127000000D03*
X165735000Y-127000000D03*
X168275000Y-127000000D03*
X170815000Y-127000000D03*
X173355000Y-127000000D03*
X175895000Y-127000000D03*
X178435000Y-127000000D03*
X180975000Y-127000000D03*
X183515000Y-127000000D03*
X186055000Y-127000000D03*
X186055000Y-111760000D03*
X183515000Y-111760000D03*
X180975000Y-111760000D03*
X178435000Y-111760000D03*
X175895000Y-111760000D03*
X173355000Y-111760000D03*
X170815000Y-111760000D03*
X168275000Y-111760000D03*
X165735000Y-111760000D03*
X163195000Y-111760000D03*
X160655000Y-111760000D03*
X158115000Y-111760000D03*
X155575000Y-111760000D03*
X153035000Y-111760000D03*
X93980000Y-110490000D03*
X93980000Y-107950000D03*
X93980000Y-105410000D03*
X93980000Y-102870000D03*
X93980000Y-100330000D03*
X93980000Y-97790000D03*
X234950000Y-129540000D03*
X234950000Y-127000000D03*
X234950000Y-124460000D03*
X234950000Y-121920000D03*
X234950000Y-119380000D03*
X234950000Y-116840000D03*
X234950000Y-114300000D03*
X234950000Y-111760000D03*
X234950000Y-109220000D03*
X234950000Y-106680000D03*
X234950000Y-104140000D03*
X234950000Y-101600000D03*
X234950000Y-99060000D03*
X234950000Y-96520000D03*
X234950000Y-93980000D03*
X234950000Y-91440000D03*
X234950000Y-88900000D03*
X234950000Y-86360000D03*
X234950000Y-83820000D03*
X234950000Y-81280000D03*
X219710000Y-81280000D03*
X219710000Y-83820000D03*
X219710000Y-86360000D03*
X219710000Y-88900000D03*
X219710000Y-91440000D03*
X219710000Y-93980000D03*
X219710000Y-96520000D03*
X219710000Y-99060000D03*
X219710000Y-101600000D03*
X219710000Y-104140000D03*
X219710000Y-106680000D03*
X219710000Y-109220000D03*
X219710000Y-111760000D03*
X219710000Y-114300000D03*
X219710000Y-116840000D03*
X219710000Y-119380000D03*
X219710000Y-121920000D03*
X219710000Y-124460000D03*
X219710000Y-127000000D03*
X219710000Y-129540000D03*
M02*
